<?xml version="1.0" encoding="utf-8"?>
<!-- Generator: Adobe Illustrator 23.0.1, SVG Export Plug-In . SVG Version: 6.00 Build 0)  -->
<svg version="1.1" id="Capa_1" xmlns="http://www.w3.org/2000/svg" xmlns:xlink="http://www.w3.org/1999/xlink" x="0px" y="0px"
	 viewBox="0 0 1589 1021" style="enable-background:new 0 0 1589 1021;" xml:space="preserve">
<style type="text/css">
	.st0{fill:url(#SVGID_1_);}
	.st1{fill:url(#SVGID_2_);}
</style>
<linearGradient id="SVGID_1_" gradientUnits="userSpaceOnUse" x1="192.8091" y1="751.3501" x2="281.0391" y2="907.1601">
	<stop  offset="0" style="stop-color:#FC9512"/>
	<stop  offset="0.3533" style="stop-color:#FD5F35"/>
	<stop  offset="0.7913" style="stop-color:#FE225C"/>
	<stop  offset="1" style="stop-color:#FF0A6C"/>
</linearGradient>
<path class="st0" d="M371.31,697.64c54.86-54.47-7.65-108.29-78.54-44.48c-48.37,43.54-74.04,108.07-115,155.55
	c-37.73,43.74-84.3,24.87-132.11,42.5c-102.13,37.66,84.45,172.21,170.95,126.45c60.59-32.06,51.71-118.65,66.55-169.53
	C298.98,753.84,334.43,734.26,371.31,697.64z"/>
<linearGradient id="SVGID_2_" gradientUnits="userSpaceOnUse" x1="1430.9636" y1="475.563" x2="1298.1678" y2="268.7498" gradientTransform="matrix(0.9638 0.0295 0.0295 0.9759 -28.8141 23.0043)">
	<stop  offset="0" style="stop-color:#FC9512"/>
	<stop  offset="0.3533" style="stop-color:#FD5F35"/>
	<stop  offset="0.7913" style="stop-color:#FE225C"/>
	<stop  offset="1" style="stop-color:#FF0A6C"/>
</linearGradient>
<path class="st1" d="M1516.23,271.34c9.38-46.26,49.51-68.17,55.16-116.94c12.3-106.18-94.22-163.26-143.26-82.16
	c-24.94,41.25-34.37,92.71-64.18,130.4c-30.25,38.24-75.94,43.63-113.36,71.2c-68.78,50.67-88.67,144.32-172.07,182.49
	c-192.33,88.03-184.48,201.63-43.69,207.2c117.81,4.67,149.71-152.65,300.97-150.4C1581.84,516.82,1495.83,371.98,1516.23,271.34z"
	/>
</svg>
