<?xml version="1.0" encoding="utf-8"?>
<!-- Generator: Adobe Illustrator 23.0.1, SVG Export Plug-In . SVG Version: 6.00 Build 0)  -->
<svg version="1.1" id="Capa_1" xmlns="http://www.w3.org/2000/svg" xmlns:xlink="http://www.w3.org/1999/xlink" x="0px" y="0px"
	 viewBox="0 0 154.31 178.24" style="enable-background:new 0 0 154.31 178.24;" xml:space="preserve">
<style type="text/css">
	.st0{fill:url(#SVGID_1_);}
</style>
<linearGradient id="SVGID_1_" gradientUnits="userSpaceOnUse" x1="9.7072" y1="86.6437" x2="138.7647" y2="86.6437">
	<stop  offset="0" style="stop-color:#E39329"/>
	<stop  offset="0.3086" style="stop-color:#E0673F"/>
	<stop  offset="0.7769" style="stop-color:#DC2A5E"/>
	<stop  offset="1" style="stop-color:#DA126A"/>
</linearGradient>
<path class="st0" d="M138.59,133.61c-0.64-2.12-2.87-3.31-4.99-2.67L126.8,133c6.4-10.57,9.59-22.83,9.05-35.38
	c-0.67-15.83-7.22-30.72-18.43-41.93c-5.97-5.97-12.85-10.48-20.19-13.55c-0.48-8.56-2.57-16.2-4.58-21.77
	c-1.59-5.04-3.55-8.32-3.73-8.62c-1.12-1.84-3.49-2.46-5.37-1.41c-1.88,1.05-2.59,3.4-1.61,5.31c0.58,1.14,1.68,3.41,2.85,6.49
	c1.41,4.24,2.61,10.21,1.42,16.53c-20.28-4.38-42.32,1.28-58.05,17.01c-19.4,19.4-23.49,48.37-12.32,71.83
	c0.1,0.24,0.2,0.48,0.31,0.7c0.06,0.12,0.13,0.23,0.2,0.35c2.95,5.91,6.88,11.46,11.8,16.38c11.92,11.92,27.77,18.49,44.63,18.49
	c2.21,0,4-1.79,4-4c0-2.21-1.79-4-4-4c-14.72,0-28.56-5.73-38.98-16.14c-4.47-4.47-7.99-9.52-10.6-14.91
	c-1.03-2.73,0.14-10.81,9.26-16.16c3.2-1.88,7.87-3.34,13.29-5.03c13.99-4.37,33.14-10.36,44.7-30.65
	c4.1-7.18,6.04-14.59,6.65-21.67c5.29,2.6,10.26,6.08,14.65,10.47c9.79,9.79,15.5,22.79,16.09,36.61
	c0.5,11.66-2.68,23.03-9.01,32.64l-2.73-9.04c-0.64-2.12-2.87-3.31-4.99-2.67c-2.12,0.64-3.31,2.87-2.67,4.99l5.21,17.26
	c0.52,1.73,2.11,2.84,3.83,2.84c0.38,0,0.77-0.06,1.16-0.17l17.26-5.21C138.04,137.96,139.23,135.73,138.59,133.61z M49.74,72.57
	c0.66,2.11,2.91,3.28,5.02,2.62C71.04,70.07,82.46,62.62,88.83,53c-0.75,5.17-2.39,10.46-5.32,15.59
	C73.51,86.14,57.5,91.15,43.36,95.57c-5.87,1.84-10.94,3.42-14.93,5.76c-4.41,2.59-7.61,5.8-9.78,9.15
	c-3.21-17.27,1.84-35.8,15.17-49.13c13.48-13.48,32.26-18.5,49.69-15.07c-4.89,9.15-15.33,16.3-31.15,21.27
	C50.25,68.22,49.08,70.46,49.74,72.57z"/>
</svg>
