<?xml version="1.0" encoding="utf-8"?>
<!-- Generator: Adobe Illustrator 23.0.1, SVG Export Plug-In . SVG Version: 6.00 Build 0)  -->
<svg version="1.1" id="Capa_1" xmlns="http://www.w3.org/2000/svg" xmlns:xlink="http://www.w3.org/1999/xlink" x="0px" y="0px"
	 viewBox="0 0 287.15 96.9" style="enable-background:new 0 0 287.15 96.9;" xml:space="preserve">
<style type="text/css">
	.st0{fill:#FFFFFF;}
	.st1{fill:url(#SVGID_1_);}
	.st2{fill:url(#SVGID_2_);}
	.st3{fill:url(#SVGID_3_);}
	.st4{fill:url(#SVGID_4_);}
</style>
<g>
	<path class="st0" d="M23.28,46.7l-15.6,37h9.4l2.45-6.15h15.65l2.4,6.15h9.35l-15.5-37H23.28z M22.38,70.3l5-12.7l4.95,12.7H22.38z
		"/>
	<path class="st0" d="M66.98,72.25c0,2.8-1.8,4.65-4.55,4.65c-2.8,0-4.6-1.85-4.6-4.65v-15.8h-8.5V73.5c0,6.45,4.05,10.7,10.1,10.7
		c2.9,0,5.75-1.1,7.75-3.35l0.15,2.85h8.15V56.45h-8.5V72.25z"/>
	<path class="st0" d="M92.23,73.3v-9.9h7.1v-6.95h-7.1v-8h-8.5v8h-4.35v6.95h4.35v11.7c0,5.45,3.6,9.1,8.9,9.1
		c2.35,0,4.95-0.4,7.1-1.35v-6.8c-1.45,0.6-2.9,0.85-4.35,0.85C93.53,76.9,92.23,75.45,92.23,73.3z"/>
	<path class="st0" d="M121.43,72.25c0,2.8-1.8,4.65-4.55,4.65c-2.8,0-4.6-1.85-4.6-4.65v-15.8h-8.5V73.5c0,6.45,4.05,10.7,10.1,10.7
		c2.9,0,5.75-1.1,7.75-3.35l0.15,2.85h8.15V56.45h-8.5V72.25z"/>
	<path class="st0" d="M168.23,55.95c-3.3,0-6.4,1.15-8.5,3.55c-1.75-2.25-4.45-3.55-7.75-3.55c-2.95,0-5.75,1.05-7.7,3.3l-0.1-2.8
		h-8.2V83.7h8.5V67.9c0-2.85,1.8-4.7,4.5-4.7c2.7,0,4.45,1.85,4.45,4.7v15.8h8.5V67.9c0-2.85,1.8-4.7,4.5-4.7
		c2.7,0,4.45,1.85,4.45,4.7v15.8h8.5V66.6C179.38,60.2,174.88,55.95,168.23,55.95z"/>
	<path class="st0" d="M201.88,55.95c-3.2,0-6.25,1.15-8.4,3.55l-0.1-3.05h-8.2V83.7h8.5V67.9c0-2.85,2.05-4.7,5.2-4.7
		c3.1,0,5.15,1.85,5.15,4.7v15.8h8.5V66.6C212.53,60.2,208.28,55.95,201.88,55.95z"/>
</g>
<g>
	
		<linearGradient id="SVGID_1_" gradientUnits="userSpaceOnUse" x1="9172.6562" y1="-7528.0493" x2="9241.708" y2="-7528.0493" gradientTransform="matrix(-0.7194 0.6946 -0.6946 -0.7194 1629.8353 -11770.4756)">
		<stop  offset="0" style="stop-color:#E39329"/>
		<stop  offset="0.3086" style="stop-color:#E0673F"/>
		<stop  offset="0.7769" style="stop-color:#DC2A5E"/>
		<stop  offset="1" style="stop-color:#DA126A"/>
	</linearGradient>
	<path class="st1" d="M201.22,15.43c7.73-7.47,18.26-11.8,29.59-11.6c11.09,0.19,21.45,4.7,29.15,12.68
		c7.71,7.98,11.84,18.49,11.65,29.58c-0.18,10.43-4.24,20.34-11.43,27.89c-7.14,7.51-16.74,12.06-27.04,12.81
		c-1.45,0.11-2.71-0.98-2.82-2.43c-0.11-1.45,0.98-2.71,2.43-2.82c8.98-0.66,17.36-4.62,23.6-11.19c6.27-6.6,9.82-15.25,9.98-24.36
		c0.17-9.69-3.44-18.86-10.17-25.83c-6.73-6.97-15.77-10.9-25.46-11.07c-15.85-0.28-29.91,9.61-35,24.61
		c-0.47,1.38-1.96,2.11-3.34,1.65c-1.38-0.47-2.12-1.96-1.65-3.34C192.93,25.55,196.57,19.92,201.22,15.43z"/>
	<g>
		
			<linearGradient id="SVGID_2_" gradientUnits="userSpaceOnUse" x1="9175.3359" y1="-7534.1528" x2="9175.3359" y2="-7534.1528" gradientTransform="matrix(-0.7194 0.6946 -0.6946 -0.7194 1629.8353 -11770.4756)">
			<stop  offset="0" style="stop-color:#E39329"/>
			<stop  offset="0.3086" style="stop-color:#E0673F"/>
			<stop  offset="0.7769" style="stop-color:#DC2A5E"/>
			<stop  offset="1" style="stop-color:#DA126A"/>
		</linearGradient>
		<path class="st2" d="M262.27,22.74"/>
		
			<linearGradient id="SVGID_3_" gradientUnits="userSpaceOnUse" x1="9154.6475" y1="-7517.0996" x2="9234.0176" y2="-7517.0996" gradientTransform="matrix(-0.7194 0.6946 -0.6946 -0.7194 1629.8353 -11770.4756)">
			<stop  offset="0" style="stop-color:#E39329"/>
			<stop  offset="0.3086" style="stop-color:#E0673F"/>
			<stop  offset="0.7769" style="stop-color:#DC2A5E"/>
			<stop  offset="1" style="stop-color:#DA126A"/>
		</linearGradient>
		<path class="st3" d="M193.22,28.01c3.16-3.05,9-5.18,16.11-3.19c2.93,0.82,6,2.5,9.56,4.44c8.55,4.67,18.24,9.96,31.13,6.68
			c3.77-0.96,7.02-2.6,9.81-4.61c-7.47,1.39-16.22-0.62-26.09-5.99c-1.28-0.7-1.75-2.29-1.05-3.57c0.7-1.28,2.29-1.75,3.57-1.05
			c10.65,5.8,19.55,7.24,26.45,4.28c5.11-2.19,8.19-6.47,9.87-9.69c0.92-1.96,1.49-3.51,1.77-4.3c0.46-1.34,1.89-2.08,3.25-1.67
			c1.36,0.41,2.15,1.82,1.79,3.19c-0.06,0.22-0.71,2.64-2.37,5.69c-3.62,7.38-11.46,19.2-25.7,22.83
			c-14.89,3.8-26.48-2.53-34.95-7.15c-3.28-1.79-6.11-3.33-8.46-3.99c-6.92-1.93-11.36,1.49-11.96,3.18
			c-0.49,1.37-1.99,2.09-3.36,1.6c-1.37-0.49-2.09-1.99-1.6-3.36C191.38,30.18,192.15,29.04,193.22,28.01z"/>
	</g>
	
		<linearGradient id="SVGID_4_" gradientUnits="userSpaceOnUse" x1="9226.2988" y1="-7561.459" x2="9242.9248" y2="-7561.459" gradientTransform="matrix(-0.7194 0.6946 -0.6946 -0.7194 1629.8353 -11770.4756)">
		<stop  offset="0" style="stop-color:#E39329"/>
		<stop  offset="0.3086" style="stop-color:#E0673F"/>
		<stop  offset="0.7769" style="stop-color:#DC2A5E"/>
		<stop  offset="1" style="stop-color:#DA126A"/>
	</linearGradient>
	<path class="st4" d="M235.71,72.4c0.81-0.79,2.07-0.98,3.11-0.4c1.27,0.71,1.72,2.31,1.01,3.58l-4.51,8.06l8.06,4.51
		c1.27,0.71,1.72,2.31,1.01,3.58c-0.71,1.27-2.31,1.72-3.58,1.01l-10.36-5.79c-0.61-0.34-1.06-0.91-1.25-1.58
		c-0.19-0.67-0.11-1.39,0.24-2l5.79-10.36C235.37,72.78,235.53,72.57,235.71,72.4z"/>
</g>
</svg>
