<?xml version="1.0" encoding="utf-8"?>
<!-- Generator: Adobe Illustrator 23.0.1, SVG Export Plug-In . SVG Version: 6.00 Build 0)  -->
<svg version="1.1" id="Capa_1" xmlns="http://www.w3.org/2000/svg" xmlns:xlink="http://www.w3.org/1999/xlink" x="0px" y="0px"
	 viewBox="0 0 1589 1021" style="enable-background:new 0 0 1589 1021;" xml:space="preserve">
<style type="text/css">
	.st0{fill:#15182D;}
	.st1{fill:url(#SVGID_1_);}
	.st2{fill:url(#SVGID_2_);}
	.st3{fill:url(#SVGID_3_);}
	.st4{fill:url(#SVGID_4_);}
</style>
<g>
	<g>
		<path class="st0" d="M391.14,454.23L328,603.98h38.04l9.92-24.89h63.34l9.71,24.89h37.84l-62.73-149.75H391.14z M387.49,549.75
			l20.24-51.4l20.03,51.4H387.49z"/>
		<path class="st0" d="M567.99,557.64c0,11.34-7.28,18.82-18.41,18.82c-11.33,0-18.62-7.49-18.62-18.82v-63.95h-34.4v69.01
			c0,26.1,16.39,43.31,40.88,43.31c11.73,0,23.27-4.45,31.37-13.56l0.6,11.54h32.99V493.69h-34.4V557.64z"/>
		<path class="st0" d="M670.18,561.89v-40.07h28.73v-28.13h-28.73v-32.38h-34.4v32.38h-17.61v28.13h17.61v47.35
			c0,22.06,14.57,36.83,36.02,36.83c9.51,0,20.03-1.62,28.74-5.46v-27.52c-5.87,2.43-11.74,3.44-17.6,3.44
			C675.44,576.46,670.18,570.59,670.18,561.89z"/>
		<path class="st0" d="M788.36,557.64c0,11.34-7.28,18.82-18.41,18.82c-11.33,0-18.62-7.49-18.62-18.82v-63.95h-34.4v69.01
			c0,26.1,16.39,43.31,40.88,43.31c11.73,0,23.27-4.45,31.37-13.56l0.6,11.54h32.99V493.69h-34.4V557.64z"/>
		<path class="st0" d="M977.77,491.67c-13.35,0-25.9,4.66-34.4,14.37c-7.08-9.11-18.01-14.37-31.37-14.37
			c-11.94,0-23.27,4.25-31.17,13.36l-0.4-11.34h-33.19v110.29h34.4v-63.95c0-11.54,7.28-19.02,18.22-19.02
			c10.92,0,18.01,7.49,18.01,19.02v63.95h34.4v-63.95c0-11.54,7.28-19.02,18.22-19.02c10.92,0,18.01,7.49,18.01,19.02v63.95h34.4
			v-69.21C1022.9,508.87,1004.68,491.67,977.77,491.67z"/>
		<path class="st0" d="M1113.95,491.67c-12.95,0-25.3,4.66-34,14.37l-0.41-12.35h-33.19v110.29h34.4v-63.95
			c0-11.54,8.3-19.02,21.04-19.02c12.55,0,20.84,7.49,20.84,19.02v63.95h34.4v-69.21C1157.05,508.87,1139.85,491.67,1113.95,491.67z
			"/>
	</g>
	<g>
		
			<linearGradient id="SVGID_1_" gradientUnits="userSpaceOnUse" x1="9679.4248" y1="-8152.7686" x2="9958.8877" y2="-8152.7686" gradientTransform="matrix(-0.7194 0.6946 -0.6946 -0.7194 2649.5312 -12256.4062)">
			<stop  offset="0" style="stop-color:#FC9512"/>
			<stop  offset="0.3533" style="stop-color:#FD5F35"/>
			<stop  offset="0.7913" style="stop-color:#FE225C"/>
			<stop  offset="1" style="stop-color:#FF0A6C"/>
		</linearGradient>
		<path class="st1" d="M1111.31,327.69c31.3-30.22,73.91-47.77,119.76-46.96c44.9,0.79,86.8,19.01,117.99,51.32
			s47.93,74.82,47.15,119.72c-0.74,42.21-17.16,82.3-46.24,112.88c-28.91,30.4-67.76,48.79-109.42,51.84
			c-5.87,0.43-10.97-3.98-11.4-9.85c-0.43-5.87,3.98-10.97,9.85-11.4c36.36-2.66,70.28-18.72,95.53-45.27
			c25.39-26.7,39.73-61.7,40.38-98.57c0.69-39.21-13.93-76.34-41.17-104.55c-27.24-28.21-63.83-44.13-103.04-44.81
			c-64.14-1.12-121.06,38.9-141.64,99.6c-1.88,5.57-7.94,8.56-13.51,6.67c-5.57-1.89-8.56-7.94-6.67-13.51
			C1077.73,368.66,1092.47,345.88,1111.31,327.69z"/>
		<g>
			
				<linearGradient id="SVGID_2_" gradientUnits="userSpaceOnUse" x1="9690.2695" y1="-8177.4707" x2="9690.2695" y2="-8177.4707" gradientTransform="matrix(-0.7194 0.6946 -0.6946 -0.7194 2649.5312 -12256.4062)">
				<stop  offset="0" style="stop-color:#FC9512"/>
				<stop  offset="0.3533" style="stop-color:#FD5F35"/>
				<stop  offset="0.7913" style="stop-color:#FE225C"/>
				<stop  offset="1" style="stop-color:#FF0A6C"/>
			</linearGradient>
			<path class="st2" d="M1358.36,357.29"/>
			
				<linearGradient id="SVGID_3_" gradientUnits="userSpaceOnUse" x1="9606.54" y1="-8108.4536" x2="9927.7637" y2="-8108.4536" gradientTransform="matrix(-0.7194 0.6946 -0.6946 -0.7194 2649.5312 -12256.4062)">
				<stop  offset="0" style="stop-color:#FC9512"/>
				<stop  offset="0.3533" style="stop-color:#FD5F35"/>
				<stop  offset="0.7913" style="stop-color:#FE225C"/>
				<stop  offset="1" style="stop-color:#FF0A6C"/>
			</linearGradient>
			<path class="st3" d="M1078.9,378.59c12.78-12.34,36.43-20.95,65.21-12.92c11.87,3.32,24.3,10.11,38.69,17.97
				c34.62,18.9,73.83,40.32,125.98,27.02c15.24-3.88,28.41-10.54,39.72-18.66c-30.24,5.61-65.63-2.51-105.57-24.24
				c-5.17-2.81-7.08-9.28-4.26-14.45c2.81-5.17,9.28-7.08,14.45-4.26c43.11,23.47,79.13,29.29,107.06,17.31
				c20.7-8.88,33.13-26.18,39.94-39.2c3.73-7.93,6.04-14.19,7.15-17.42c1.86-5.43,7.67-8.41,13.16-6.75
				c5.49,1.65,8.68,7.36,7.23,12.9c-0.24,0.9-2.89,10.69-9.59,23.04c-14.64,29.89-46.37,77.7-104.01,92.39
				c-60.26,15.37-107.17-10.24-141.43-28.95c-13.27-7.24-24.71-13.49-34.24-16.16c-28.02-7.82-45.98,6.02-48.42,12.85
				c-1.97,5.54-8.06,8.44-13.61,6.47c-5.54-1.97-8.44-8.06-6.47-13.61C1071.49,387.38,1074.58,382.77,1078.9,378.59z"/>
		</g>
		
			<linearGradient id="SVGID_4_" gradientUnits="userSpaceOnUse" x1="9896.5225" y1="-8287.9814" x2="9963.8135" y2="-8287.9814" gradientTransform="matrix(-0.7194 0.6946 -0.6946 -0.7194 2649.5312 -12256.4062)">
			<stop  offset="0" style="stop-color:#FC9512"/>
			<stop  offset="0.3533" style="stop-color:#FD5F35"/>
			<stop  offset="0.7913" style="stop-color:#FE225C"/>
			<stop  offset="1" style="stop-color:#FF0A6C"/>
		</linearGradient>
		<path class="st4" d="M1250.89,558.25c3.29-3.18,8.4-3.98,12.6-1.63c5.14,2.87,6.97,9.36,4.1,14.5l-18.24,32.63l32.63,18.24
			c5.14,2.87,6.97,9.36,4.1,14.5c-2.87,5.13-9.36,6.97-14.5,4.1l-41.93-23.43c-2.47-1.38-4.28-3.68-5.05-6.4
			c-0.77-2.72-0.43-5.63,0.95-8.1l23.44-41.93C1249.51,559.78,1250.16,558.96,1250.89,558.25z"/>
	</g>
</g>
</svg>
